<?xml version="1.0" encoding="UTF-8" standalone="no"?>
<!-- Created with Inkscape (http://www.inkscape.org/) -->

<svg
   width="10"
   height="240"
   viewBox="0 0 2.6458333 63.5"
   version="1.1"
   id="svg5"
   xml:space="preserve"
   sodipodi:docname="New document 1.2023_07_02_17_10_32.0.svg"
   xmlns:inkscape="http://www.inkscape.org/namespaces/inkscape"
   xmlns:sodipodi="http://sodipodi.sourceforge.net/DTD/sodipodi-0.dtd"
   xmlns="http://www.w3.org/2000/svg"
   xmlns:svg="http://www.w3.org/2000/svg"><sodipodi:namedview
     id="namedview7"
     pagecolor="#5c5c5c"
     bordercolor="#000000"
     borderopacity="0.25"
     inkscape:showpageshadow="2"
     inkscape:pageopacity="0"
     inkscape:pagecheckerboard="0"
     inkscape:deskcolor="#d1d1d1"
     inkscape:document-units="px"
     showgrid="false"
     showguides="false" /><defs
     id="defs2" /><g
     inkscape:label="Layer 1"
     inkscape:groupmode="layer"
     id="layer1"><path
       id="rect282"
       style="fill:#fffcfd;fill-opacity:1;stroke-width:0.264845"
       d="M 1.1709879,0 C 0.52214754,0 0,0.52214754 0,1.1709879 V 21.318595 c 0,0.648841 0.52214754,1.170988 1.1709879,1.170988 h 0.3038575 c 0.6488404,0 1.1709879,-0.522147 1.1709879,-1.170988 V 1.1709879 C 2.6458333,0.52214754 2.1236858,0 1.4748454,0 Z m 0.116272,0.52916666 h 0.018087 c 0.3614378,0 0.6526733,0.29123554 0.6526733,0.65267334 v 15.89257 c 0,0.361438 -0.2912355,0.652673 -0.6526733,0.652673 h -0.018087 c -0.36143778,0 -0.65215655,-0.291235 -0.65215655,-0.652673 V 1.18184 c 0,-0.3614378 0.29071877,-0.65267334 0.65215655,-0.65267334 z" /></g></svg>
