<?xml version="1.0" encoding="UTF-8" standalone="no"?>
<!-- Created with Inkscape (http://www.inkscape.org/) -->

<svg
   width="240"
   height="240"
   viewBox="0 0 63.499999 63.5"
   version="1.1"
   id="svg2625"
   inkscape:version="1.2.2 (b0a8486, 2022-12-01)"
   xml:space="preserve"
   xmlns:inkscape="http://www.inkscape.org/namespaces/inkscape"
   xmlns:sodipodi="http://sodipodi.sourceforge.net/DTD/sodipodi-0.dtd"
   xmlns="http://www.w3.org/2000/svg"
   xmlns:svg="http://www.w3.org/2000/svg"><sodipodi:namedview
     id="namedview2627"
     pagecolor="#4c4c4c"
     bordercolor="#000000"
     borderopacity="0.25"
     inkscape:showpageshadow="2"
     inkscape:pageopacity="0"
     inkscape:pagecheckerboard="0"
     inkscape:deskcolor="#d1d1d1"
     inkscape:document-units="px"
     showgrid="false"
     showguides="false"
     inkscape:zoom="27.100001"
     inkscape:cx="39.188191"
     inkscape:cy="48.228781"
     inkscape:window-width="1440"
     inkscape:window-height="762"
     inkscape:window-x="0"
     inkscape:window-y="25"
     inkscape:window-maximized="1"
     inkscape:current-layer="layer1" /><defs
     id="defs2622"><inkscape:path-effect
       effect="spiro"
       id="path-effect6760"
       is_visible="true"
       lpeversion="1" /><inkscape:path-effect
       effect="spiro"
       id="path-effect3227"
       is_visible="true"
       lpeversion="1" /><inkscape:path-effect
       effect="spiro"
       id="path-effect3221"
       is_visible="true"
       lpeversion="1" /><inkscape:path-effect
       effect="spiro"
       id="path-effect3205"
       is_visible="true"
       lpeversion="1" /></defs><g
     inkscape:label="Layer 1"
     inkscape:groupmode="layer"
     id="layer1"><path
       style="fill:#ffffff;fill-opacity:1;stroke:none;stroke-width:0.248326;stroke-opacity:1"
       d="m 6.0854166,14.2875 c 0,-0.06927 0.028515,-0.138109 0.077495,-0.187089 0.04898,-0.04898 0.117821,-0.07749 0.1870887,-0.07749 h 4.233333 c 0.06927,0 0.138109,0.02852 0.187089,0.07749 0.04898,0.04898 0.0775,0.117821 0.0775,0.187089 0,0.06927 -0.02852,0.138109 -0.0775,0.187089 -0.04898,0.04898 -0.117821,0.07749 -0.187089,0.07749 H 6.35 c -0.069268,0 -0.138109,-0.02852 -0.1870887,-0.07749 -0.04898,-0.04898 -0.077495,-0.117821 -0.077495,-0.187089 z"
       id="path3203"
       inkscape:path-effect="#path-effect3205"
       inkscape:original-d="M 6.0854166,14.2875 C 5.9915836,14.19763 6.35,14.022917 6.35,14.022917 h 4.233333 c 0,0 0.177729,0.178072 0.264584,0.264583 0.08685,0.08651 -0.264584,0.264583 -0.264584,0.264583 H 6.35 c 0,0 -0.1707503,-0.17471 -0.2645834,-0.264583 z"
       sodipodi:nodetypes="sccsccs" /><path
       style="fill:#ffffff;fill-opacity:1;stroke:none;stroke-width:0.248326;stroke-opacity:1"
       d="m 8.4666666,15.081246 c 0,-0.06927 0.028515,-0.138109 0.077495,-0.187089 0.04898,-0.04898 0.117821,-0.07749 0.1870887,-0.07749 h 2.38125 c 0.06927,0 0.138109,0.02852 0.187089,0.07749 0.04898,0.04898 0.0775,0.117821 0.0775,0.187089 0,0.06927 -0.02852,0.138109 -0.0775,0.187089 -0.04898,0.04898 -0.117821,0.07749 -0.187089,0.07749 H 8.73125 c -0.069268,0 -0.138109,-0.02852 -0.1870887,-0.07749 -0.04898,-0.04898 -0.077495,-0.117821 -0.077495,-0.187089 z"
       id="path3217"
       inkscape:path-effect="#path-effect3221"
       inkscape:original-d="M 8.4666666,15.081246 C 8.3728336,14.991376 8.73125,14.816663 8.73125,14.816663 h 2.38125 c 0,0 0.177729,0.178072 0.264584,0.264583 0.08685,0.08651 -0.264584,0.264583 -0.264584,0.264583 H 8.73125 c 0,0 -0.1707503,-0.17471 -0.2645834,-0.264583 z"
       sodipodi:nodetypes="sccsccs" /><path
       style="fill:#ffffff;fill-opacity:1;stroke:none;stroke-width:0.248326;stroke-opacity:1"
       d="m 6.35,15.08125 c 0,-0.06927 0.028515,-0.138109 0.077495,-0.187089 0.04898,-0.04898 0.117821,-0.07749 0.1870887,-0.07749 h 1.0583334 c 0.069268,0 0.1381092,0.02851 0.1870891,0.07749 0.04898,0.04898 0.077495,0.117821 0.077495,0.187089 0,0.06927 -0.028515,0.138109 -0.077495,0.187089 -0.04898,0.04898 -0.1178213,0.07749 -0.1870891,0.07749 H 6.6145834 c -0.069268,0 -0.138109,-0.02852 -0.1870887,-0.07749 C 6.378515,15.219359 6.35,15.150518 6.35,15.08125 Z"
       id="path3223"
       inkscape:path-effect="#path-effect3227"
       inkscape:original-d="M 6.35,15.08125 C 6.256167,14.99138 6.6145834,14.816667 6.6145834,14.816667 h 1.0583334 c 0,0 0.177729,0.178072 0.264584,0.264583 0.08685,0.08651 -0.264584,0.264583 -0.264584,0.264583 H 6.6145834 c 0,0 -0.1707503,-0.17471 -0.2645834,-0.264583 z"
       sodipodi:nodetypes="sccsccs" /><path
       style="fill:none;fill-opacity:0.528497;stroke:#ffffff;stroke-width:0.370417;stroke-dasharray:none;stroke-opacity:1"
       d="m 6.7238508,12.539837 c 0.033399,0.329221 0.2381167,0.636297 0.5291667,0.79375 h 2.9104165 c 0.147587,-0.07603 0.275333,-0.190178 0.367424,-0.328315 0.09209,-0.138136 0.148326,-0.299959 0.161743,-0.465435 0.02292,-0.282691 -0.08391,-0.573326 -0.284458,-0.773875 -0.200549,-0.200549 -0.4911841,-0.30738 -0.7738755,-0.284459 -2e-7,-0.204456 -0.101019,-0.406493 -0.2645834,-0.529166 -0.1135065,-0.08513 -0.2549919,-0.132292 -0.396875,-0.132292 -0.1418831,0 -0.2833685,0.04716 -0.396875,0.132292 C 8.5081009,10.79882 8.3957539,10.665282 8.256106,10.572183 8.1164581,10.479085 7.9499821,10.42674 7.7821841,10.42317 c -0.1556871,-0.0033 -0.3120688,0.03523 -0.4483867,0.110507 -0.1363179,0.07528 -0.2522293,0.187105 -0.3323477,0.320636 -0.080118,0.133531 -0.1242425,0.28843 -0.126515,0.444135 -0.00227,0.155706 0.037312,0.311827 0.1134994,0.447639 -0.1947542,0.211329 -0.2935893,0.507834 -0.2645833,0.79375 z"
       id="path6758"
       inkscape:path-effect="#path-effect6760"
       inkscape:original-d="m 6.7238508,12.539837 c 0.2306961,0.449055 0.5291667,0.79375 0.5291667,0.79375 h 2.9104165 c 0,0 0.404745,-0.317698 0.529167,-0.79375 0.391707,-1.498711 -1.0583335,-1.058334 -1.0583335,-1.058334 0,0 -0.6027253,-0.357982 -0.2645834,-0.529166 0.4781411,-0.242058 -0.79375,0 -0.79375,0 0,0 -0.4667727,-0.602645 -0.79375,-0.529167 -0.6184537,0.138979 -0.79375,1.322917 -0.79375,1.322917 -0.1960204,0.346164 -0.4252358,0.481036 -0.2645833,0.79375 z"
       sodipodi:nodetypes="sccscscscs" /></g></svg>
